<svg width="455" height="543" viewBox="0 0 455 543" fill="none" xmlns="http://www.w3.org/2000/svg">
<path d="M182.285 136.844C183.363 140.727 188.355 141.805 190.939 138.714L277.701 34.926C280.951 31.0375 287.258 33.8959 286.477 38.9036L263.873 183.785C263.264 187.69 267.211 190.725 270.828 189.132L389.339 136.944C393.978 134.902 398.362 140.262 395.44 144.403L315.204 258.115C313.189 260.97 314.65 264.958 318.032 265.837L450.566 300.268C455.472 301.542 455.586 308.466 450.726 309.902L296.348 355.523C294.727 356.002 293.463 357.27 292.95 358.881C283.417 388.809 264.744 414.657 240.214 433.152C238.591 434.375 237.819 436.436 238.295 438.412L251.811 494.521C251.816 494.541 251.834 494.556 251.855 494.556C251.886 494.556 251.908 494.587 251.898 494.616L251.87 494.696C251.863 494.715 251.862 494.736 251.867 494.756L251.949 495.093C251.975 495.202 251.893 495.306 251.782 495.306C251.708 495.306 251.643 495.353 251.619 495.422L236.727 538.602C235.177 543.094 228.823 543.095 227.273 538.602L212.704 496.364C212.526 495.847 212.039 495.502 211.492 495.505C210.951 495.508 210.471 495.852 210.294 496.364L195.727 538.601C194.177 543.094 187.823 543.094 186.273 538.601L171.577 495.993C171.517 495.819 171.353 495.703 171.169 495.704C170.988 495.705 170.827 495.821 170.767 495.993L155.727 539.602C154.177 544.094 147.823 544.094 146.273 539.602L131.43 496.57C131.293 496.171 130.916 495.904 130.494 495.906C130.076 495.909 129.705 496.175 129.568 496.57L114.727 539.601C113.177 544.094 106.823 544.094 105.273 539.602L90.3595 496.364C90.3063 496.209 90.1607 496.106 89.9975 496.107C89.8358 496.108 89.6922 496.211 89.6395 496.364L74.7266 539.601C73.177 544.094 66.8229 544.094 65.2732 539.602L50.3785 496.419C50.3548 496.35 50.29 496.304 50.2173 496.304C50.1069 496.305 50.0254 496.202 50.0516 496.095L50.133 495.761C50.138 495.741 50.1371 495.72 50.1303 495.7L50.1024 495.618C50.092 495.588 50.1148 495.556 50.1474 495.556C50.1692 495.556 50.1882 495.541 50.1935 495.52L63.8615 440.042C64.3577 438.028 63.5537 435.923 61.8762 434.703C24.3778 407.436 0 363.218 0 313.306C4.1636e-05 253.554 34.9379 201.964 85.4986 177.846C86.8292 177.211 87.834 176.041 88.2283 174.62L135.682 3.66262C137.038 -1.22096 143.962 -1.22096 145.318 3.66263L182.285 136.844Z" fill="black"/>
<ellipse cx="105" cy="331.878" rx="43.1162" ry="78.9491" transform="rotate(7.45873 105 331.878)" fill="#D9D9D9"/>
<ellipse cx="196.68" cy="357.03" rx="29.1379" ry="53.6904" transform="rotate(-17.8099 196.68 357.03)" fill="#D9D9D9"/>
</svg>
